<?xml version="1.0" encoding="UTF-8" standalone="no"?>
<!DOCTYPE svg PUBLIC "-//W3C//DTD SVG 1.1//EN" "http://www.w3.org/Graphics/SVG/1.1/DTD/svg11.dtd">
<svg version="1.1" xmlns="http://www.w3.org/2000/svg" xmlns:xlink="http://www.w3.org/1999/xlink" preserveAspectRatio="xMidYMid meet" viewBox="83.12110345382641 11.90823774765363 455.261788501864 618.3939816274097" width="450.26" height="615.39"><defs><path d="M85.12 584.94L535.38 584.94L535.38 627.3L85.12 627.3L85.12 584.94Z" id="c3ulhaaC3"></path><path d="M119.83 549.11L500.67 549.11L500.67 584.94L119.83 584.94L119.83 549.11Z" id="b4TjuAD1iQ"></path><path d="M374.78 198.55L439.3 549.11L310.25 549.11L181.2 549.11L245.72 198.55L310.25 78.23L374.78 198.55Z" id="a4XR9yjGPj"></path><path d="M254.59 411.46C240.44 481.46 225.36 536.79 214.16 533.6C202.97 530.41 209.54 470.8 223.69 400.8C237.83 330.79 254.23 276.74 265.42 279.92C276.62 283.11 268.73 341.46 254.59 411.46Z" id="exnqCbZJN"></path><path d="M310.25 180.92L202.83 205.21L202.83 253.78L310.25 278.07L417.68 253.78L417.68 205.21L310.25 180.92Z" id="h55TyKVxy4"></path><path d="M417.68 116.08C417.68 158.3 369.54 112.35 310.25 112.35C250.96 112.35 202.83 158.3 202.83 116.08C202.83 73.85 250.96 39.56 310.25 39.56C369.54 39.56 417.68 73.85 417.68 116.08Z" id="j774NJpQaB"></path><path d="M188.86 100.28L431.65 100.28L410.28 152.97L212.16 152.97L188.86 100.28Z" id="apQ1vNeH4"></path><path d="M319.61 81.37L328.97 100.28L310.25 100.28L291.53 100.28L300.89 81.37L310.25 72.86L319.61 81.37Z" id="bTcToQyUu"></path><path d="M422.29 81.37L431.65 100.28L412.92 100.28L394.2 100.28L403.56 81.37L412.92 72.86L422.29 81.37Z" id="e4v2yYDDV"></path><path d="M216.94 81.37L226.3 100.28L207.58 100.28L188.86 100.28L198.22 81.37L207.58 72.86L216.94 81.37Z" id="a1YZ4XFWoK"></path><path d="M371.33 81.37L380.69 100.28L361.97 100.28L343.25 100.28L352.61 81.37L361.97 72.86L371.33 81.37Z" id="e3e7eNU91g"></path><path d="M268.01 81.37L277.37 100.28L258.65 100.28L239.93 100.28L249.29 81.37L258.65 72.86L268.01 81.37Z" id="gYuUpV9fv"></path><path d="M319.86 25.74C319.86 33.37 313.66 39.56 306.03 39.56C298.4 39.56 292.21 33.37 292.21 25.74C292.21 18.1 298.4 11.91 306.03 11.91C313.66 11.91 319.86 18.1 319.86 25.74Z" id="e1EppbkIx"></path><path d="M203.57 89.52C201.82 92.96 200.92 95.85 199.28 95.06C197.63 94.27 198.32 91.05 200.08 87.61C201.84 84.17 204 81.8 205.65 82.59C207.3 83.38 205.33 86.08 203.57 89.52Z" id="e59rvHGZyP"></path><path d="M254.74 89.52C252.99 92.96 252.1 95.85 250.45 95.06C248.8 94.27 249.49 91.05 251.25 87.61C253.01 84.17 255.17 81.8 256.82 82.59C258.47 83.38 256.5 86.08 254.74 89.52Z" id="d7Sk60KoJq"></path><path d="M305.49 89.52C303.74 92.96 302.84 95.85 301.2 95.06C299.55 94.27 300.24 91.05 302 87.61C303.76 84.17 305.92 81.8 307.57 82.59C309.22 83.38 307.25 86.08 305.49 89.52Z" id="ciPFjoHKs"></path><path d="M358.86 89.52C357.1 92.96 356.21 95.85 354.56 95.06C352.91 94.27 353.61 91.05 355.36 87.61C357.12 84.17 359.28 81.8 360.93 82.59C362.58 83.38 360.61 86.08 358.86 89.52Z" id="a5bKVKmuW"></path><path d="M410.5 89.52C408.74 92.96 407.85 95.85 406.2 95.06C404.55 94.27 405.25 91.05 407 87.61C408.76 84.17 410.92 81.8 412.57 82.59C414.22 83.38 412.25 86.08 410.5 89.52Z" id="a3Q59M5NDF"></path><path d="M219.26 124.32C222.9 135.19 224.73 144.29 221.37 145.35C218.02 146.4 213.45 137.86 209.81 126.98C206.18 116.11 204.84 107 208.19 105.95C211.54 104.9 215.63 113.45 219.26 124.32Z" id="a2xAHhkYPO"></path><path d="M302.62 25.27C301.59 29.9 301.03 33.62 299.08 33.19C297.13 32.76 296.38 28.65 297.41 24.02C298.44 19.39 300.86 15.98 302.8 16.41C304.75 16.85 303.65 20.64 302.62 25.27Z" id="e1g9DYG4b"></path></defs><g><g><use xlink:href="#c3ulhaaC3" opacity="1" fill="#ffffff" fill-opacity="1"></use><g><use xlink:href="#c3ulhaaC3" opacity="1" fill-opacity="0" stroke="#000000" stroke-width="4" stroke-opacity="1"></use></g></g><g><use xlink:href="#b4TjuAD1iQ" opacity="1" fill="#ffffff" fill-opacity="1"></use><g><use xlink:href="#b4TjuAD1iQ" opacity="1" fill-opacity="0" stroke="#000000" stroke-width="4" stroke-opacity="1"></use></g></g><g><use xlink:href="#a4XR9yjGPj" opacity="1" fill="#ffffff" fill-opacity="1"></use><g><use xlink:href="#a4XR9yjGPj" opacity="1" fill-opacity="0" stroke="#000000" stroke-width="4" stroke-opacity="1"></use></g></g><g><use xlink:href="#exnqCbZJN" opacity="0.57" fill="#dbdbdb" fill-opacity="1"></use></g><g><use xlink:href="#h55TyKVxy4" opacity="1" fill="#ffffff" fill-opacity="1"></use><g><use xlink:href="#h55TyKVxy4" opacity="1" fill-opacity="0" stroke="#141111" stroke-width="4" stroke-opacity="1"></use></g></g><g><g><use xlink:href="#j774NJpQaB" opacity="1" fill="#ffffff" fill-opacity="1"></use><g><use xlink:href="#j774NJpQaB" opacity="1" fill-opacity="0" stroke="#141111" stroke-width="4" stroke-opacity="1"></use></g></g><g><g><g><use xlink:href="#apQ1vNeH4" opacity="1" fill="#ffffff" fill-opacity="1"></use><g><use xlink:href="#apQ1vNeH4" opacity="1" fill-opacity="0" stroke="#000000" stroke-width="4" stroke-opacity="1"></use></g></g><g><use xlink:href="#bTcToQyUu" opacity="1" fill="#ffffff" fill-opacity="1"></use><g><use xlink:href="#bTcToQyUu" opacity="1" fill-opacity="0" stroke="#000000" stroke-width="4" stroke-opacity="1"></use></g></g><g><use xlink:href="#e4v2yYDDV" opacity="1" fill="#ffffff" fill-opacity="1"></use><g><use xlink:href="#e4v2yYDDV" opacity="1" fill-opacity="0" stroke="#000000" stroke-width="4" stroke-opacity="1"></use></g></g><g><use xlink:href="#a1YZ4XFWoK" opacity="1" fill="#ffffff" fill-opacity="1"></use><g><use xlink:href="#a1YZ4XFWoK" opacity="1" fill-opacity="0" stroke="#000000" stroke-width="4" stroke-opacity="1"></use></g></g><g><use xlink:href="#e3e7eNU91g" opacity="1" fill="#ffffff" fill-opacity="1"></use><g><use xlink:href="#e3e7eNU91g" opacity="1" fill-opacity="0" stroke="#000000" stroke-width="4" stroke-opacity="1"></use></g></g><g><use xlink:href="#gYuUpV9fv" opacity="1" fill="#ffffff" fill-opacity="1"></use><g><use xlink:href="#gYuUpV9fv" opacity="1" fill-opacity="0" stroke="#000000" stroke-width="4" stroke-opacity="1"></use></g></g></g><g><use xlink:href="#e1EppbkIx" opacity="1" fill="#ffffff" fill-opacity="1"></use><g><use xlink:href="#e1EppbkIx" opacity="1" fill-opacity="0" stroke="#141111" stroke-width="4" stroke-opacity="1"></use></g></g></g></g><g><g><g><use xlink:href="#e59rvHGZyP" opacity="0.7" fill="#dbdbdb" fill-opacity="1"></use></g><g><use xlink:href="#d7Sk60KoJq" opacity="0.7" fill="#dbdbdb" fill-opacity="1"></use></g><g><use xlink:href="#ciPFjoHKs" opacity="0.7" fill="#dbdbdb" fill-opacity="1"></use></g><g><use xlink:href="#a5bKVKmuW" opacity="0.7" fill="#dbdbdb" fill-opacity="1"></use></g><g><use xlink:href="#a3Q59M5NDF" opacity="0.7" fill="#dbdbdb" fill-opacity="1"></use></g></g><g><use xlink:href="#a2xAHhkYPO" opacity="0.7" fill="#dbdbdb" fill-opacity="1"></use></g></g><g><use xlink:href="#e1g9DYG4b" opacity="0.45" fill="#e1e1e1" fill-opacity="1"></use></g></g></svg>