<?xml version="1.0" encoding="UTF-8" standalone="no"?>
<!DOCTYPE svg PUBLIC "-//W3C//DTD SVG 1.1//EN" "http://www.w3.org/Graphics/SVG/1.1/DTD/svg11.dtd">
<svg version="1.1" xmlns="http://www.w3.org/2000/svg" xmlns:xlink="http://www.w3.org/1999/xlink" preserveAspectRatio="xMidYMid meet" viewBox="97.08356435059389 89.80303761575794 455.261788501864 516.1717573588883" width="450.26" height="513.17"><defs><path d="M99.08 560.61L549.35 560.61L549.35 602.97L99.08 602.97L99.08 560.61Z" id="aE69UEibz"></path><path d="M133.79 524.78L514.64 524.78L514.64 560.61L133.79 560.61L133.79 524.78Z" id="caL2LNPL7J"></path><path d="M400.91 199.74L477.48 524.78L324.32 524.78L171.17 524.78L247.74 199.74L324.32 134.74L400.91 199.74Z" id="c14xxRim2h"></path><path d="M146.95 129.85L501.48 129.85L470.28 206.79L180.98 206.79L146.95 129.85Z" id="d16Tw9axEs"></path><path d="M337.88 102.24L351.55 129.85L324.21 129.85L296.87 129.85L310.54 102.24L324.21 89.8L337.88 102.24Z" id="a7SJrpcHiS"></path><path d="M487.81 102.24L501.48 129.85L474.14 129.85L446.8 129.85L460.47 102.24L474.14 89.8L487.81 102.24Z" id="a5COXymUK"></path><path d="M187.96 102.24L201.63 129.85L174.29 129.85L146.95 129.85L160.62 102.24L174.29 89.8L187.96 102.24Z" id="d6JJmcrc5F"></path><path d="M413.4 102.24L427.07 129.85L399.73 129.85L372.39 129.85L386.06 102.24L399.73 89.8L413.4 102.24Z" id="d6COOUr2EW"></path><path d="M262.53 102.24L276.2 129.85L248.86 129.85L221.52 129.85L235.19 102.24L248.86 89.8L262.53 102.24Z" id="b2kN8lNGy"></path><path d="M267.52 376.5C250.73 446.5 232.83 501.82 219.54 498.64C206.25 495.45 214.06 435.84 230.84 365.83C247.63 295.83 267.09 241.77 280.38 244.96C293.67 248.15 284.31 306.49 267.52 376.5Z" id="a427S0tuU1"></path><path d="M167.23 113.63C164.66 118.82 163.36 123.17 160.95 121.98C158.55 120.79 159.57 115.93 162.13 110.74C164.7 105.55 167.85 101.99 170.26 103.18C172.67 104.37 169.8 108.45 167.23 113.63Z" id="b3KW95r7lX"></path><path d="M241.96 113.63C239.39 118.82 238.09 123.17 235.68 121.98C233.27 120.79 234.29 115.93 236.86 110.74C239.43 105.55 242.58 101.99 244.98 103.18C247.39 104.37 244.52 108.45 241.96 113.63Z" id="a14wT8OW7A"></path><path d="M316.07 113.63C313.5 118.82 312.2 123.17 309.79 121.98C307.38 120.79 308.4 115.93 310.97 110.74C313.54 105.55 316.68 101.99 319.09 103.18C321.5 104.37 318.63 108.45 316.07 113.63Z" id="abWorIGkx"></path><path d="M393.99 113.63C391.42 118.82 390.12 123.17 387.71 121.98C385.31 120.79 386.32 115.93 388.89 110.74C391.46 105.55 394.61 101.99 397.02 103.18C399.43 104.37 396.56 108.45 393.99 113.63Z" id="e2nHLF5t4c"></path><path d="M469.4 113.63C466.83 118.82 465.53 123.17 463.12 121.98C460.71 120.79 461.73 115.93 464.3 110.74C466.87 105.55 470.02 101.99 472.43 103.18C474.83 104.37 471.97 108.45 469.4 113.63Z" id="c3JALNtUz"></path><path d="M190.14 166.1C195.45 182.49 198.12 196.21 193.22 197.8C188.33 199.38 181.66 186.5 176.34 170.11C171.03 153.72 169.08 139.98 173.98 138.4C178.87 136.81 184.83 149.71 190.14 166.1Z" id="a4ItiHlIa0"></path></defs><g><g><use xlink:href="#aE69UEibz" opacity="1" fill="#ffffff" fill-opacity="1"></use><g><use xlink:href="#aE69UEibz" opacity="1" fill-opacity="0" stroke="#000000" stroke-width="4" stroke-opacity="1"></use></g></g><g><use xlink:href="#caL2LNPL7J" opacity="1" fill="#ffffff" fill-opacity="1"></use><g><use xlink:href="#caL2LNPL7J" opacity="1" fill-opacity="0" stroke="#000000" stroke-width="4" stroke-opacity="1"></use></g></g><g><use xlink:href="#c14xxRim2h" opacity="1" fill="#ffffff" fill-opacity="1"></use><g><use xlink:href="#c14xxRim2h" opacity="1" fill-opacity="0" stroke="#000000" stroke-width="4" stroke-opacity="1"></use></g></g><g><g><use xlink:href="#d16Tw9axEs" opacity="1" fill="#ffffff" fill-opacity="1"></use><g><use xlink:href="#d16Tw9axEs" opacity="1" fill-opacity="0" stroke="#000000" stroke-width="4" stroke-opacity="1"></use></g></g><g><use xlink:href="#a7SJrpcHiS" opacity="1" fill="#ffffff" fill-opacity="1"></use><g><use xlink:href="#a7SJrpcHiS" opacity="1" fill-opacity="0" stroke="#000000" stroke-width="4" stroke-opacity="1"></use></g></g><g><use xlink:href="#a5COXymUK" opacity="1" fill="#ffffff" fill-opacity="1"></use><g><use xlink:href="#a5COXymUK" opacity="1" fill-opacity="0" stroke="#000000" stroke-width="4" stroke-opacity="1"></use></g></g><g><use xlink:href="#d6JJmcrc5F" opacity="1" fill="#ffffff" fill-opacity="1"></use><g><use xlink:href="#d6JJmcrc5F" opacity="1" fill-opacity="0" stroke="#000000" stroke-width="4" stroke-opacity="1"></use></g></g><g><use xlink:href="#d6COOUr2EW" opacity="1" fill="#ffffff" fill-opacity="1"></use><g><use xlink:href="#d6COOUr2EW" opacity="1" fill-opacity="0" stroke="#000000" stroke-width="4" stroke-opacity="1"></use></g></g><g><use xlink:href="#b2kN8lNGy" opacity="1" fill="#ffffff" fill-opacity="1"></use><g><use xlink:href="#b2kN8lNGy" opacity="1" fill-opacity="0" stroke="#000000" stroke-width="4" stroke-opacity="1"></use></g></g></g><g><use xlink:href="#a427S0tuU1" opacity="0.7" fill="#dbdbdb" fill-opacity="1"></use></g><g><g><g><use xlink:href="#b3KW95r7lX" opacity="0.7" fill="#dbdbdb" fill-opacity="1"></use></g><g><use xlink:href="#a14wT8OW7A" opacity="0.7" fill="#dbdbdb" fill-opacity="1"></use></g><g><use xlink:href="#abWorIGkx" opacity="0.7" fill="#dbdbdb" fill-opacity="1"></use></g><g><use xlink:href="#e2nHLF5t4c" opacity="0.7" fill="#dbdbdb" fill-opacity="1"></use></g><g><use xlink:href="#c3JALNtUz" opacity="0.7" fill="#dbdbdb" fill-opacity="1"></use></g></g><g><use xlink:href="#a4ItiHlIa0" opacity="0.7" fill="#dbdbdb" fill-opacity="1"></use></g></g></g></svg>