<?xml version="1.0" encoding="UTF-8" standalone="no"?>
<!DOCTYPE svg PUBLIC "-//W3C//DTD SVG 1.1//EN" "http://www.w3.org/Graphics/SVG/1.1/DTD/svg11.dtd">
<svg version="1.1" xmlns="http://www.w3.org/2000/svg" xmlns:xlink="http://www.w3.org/1999/xlink" preserveAspectRatio="xMidYMid meet" viewBox="107.08356435059389 36.14389989572467 455.261788501864 579.8308950789216" width="450.26" height="574.83"><defs><path d="M109.08 570.61L559.35 570.61L559.35 612.97L109.08 612.97L109.08 570.61Z" id="c1vw9blyIC"></path><path d="M143.79 534.78L524.64 534.78L524.64 570.61L143.79 570.61L143.79 534.78Z" id="e2EzbhVp7i"></path><path d="M221.66 534.78L175.17 333.31L160.03 244.12L175.17 166.29L229.22 110.61L290.31 69.53L304.36 38.14L324.36 67.37L508.39 195.47L495.17 216.02L324.36 218.18L496.79 480.88L443.82 534.78L221.66 534.78Z" id="a6tgUYpzm"></path><path d="M242.14 232.81C242.14 329.76 275.04 500.58 253.98 500.58C232.92 500.58 197.4 346.87 197.4 249.92C197.4 152.97 240.11 115.78 261.17 115.78C282.23 115.78 242.14 135.87 242.14 232.81Z" id="c3MkzZm0aQ"></path></defs><g><g><use xlink:href="#c1vw9blyIC" opacity="1" fill="#ffffff" fill-opacity="1"></use><g><use xlink:href="#c1vw9blyIC" opacity="1" fill-opacity="0" stroke="#000000" stroke-width="4" stroke-opacity="1"></use></g></g><g><use xlink:href="#e2EzbhVp7i" opacity="1" fill="#ffffff" fill-opacity="1"></use><g><use xlink:href="#e2EzbhVp7i" opacity="1" fill-opacity="0" stroke="#000000" stroke-width="4" stroke-opacity="1"></use></g></g><g><use xlink:href="#a6tgUYpzm" opacity="1" fill="#ffffff" fill-opacity="1"></use><g><use xlink:href="#a6tgUYpzm" opacity="1" fill-opacity="0" stroke="#000000" stroke-width="4" stroke-opacity="1"></use></g></g><g><use xlink:href="#c3MkzZm0aQ" opacity="0.68" fill="#c8c8c8" fill-opacity="1"></use></g></g></svg>