<?xml version="1.0" encoding="UTF-8" standalone="no"?>
<!DOCTYPE svg PUBLIC "-//W3C//DTD SVG 1.1//EN" "http://www.w3.org/Graphics/SVG/1.1/DTD/svg11.dtd">
<svg version="1.1" xmlns="http://www.w3.org/2000/svg" xmlns:xlink="http://www.w3.org/1999/xlink" preserveAspectRatio="xMidYMid meet" viewBox="93.12110345382641 13.031841357937779 455.261788501864 627.2703780171256" width="450.26" height="622.27"><defs><path d="M95.12 594.94L545.38 594.94L545.38 637.3L95.12 637.3L95.12 594.94Z" id="a1eTctJJij"></path><path d="M129.83 559.11L510.67 559.11L510.67 594.94L129.83 594.94L129.83 559.11Z" id="brQ6016Tw"></path><path d="M384.78 208.55L449.3 559.11L320.25 559.11L191.2 559.11L255.72 208.55L320.25 88.23L384.78 208.55Z" id="e406Y8EiPB"></path><path d="M261.66 435.29C248.35 501.17 233.94 553.17 222.75 549.98C211.55 546.79 217.43 490.61 230.74 424.73C244.06 358.85 259.79 308.06 270.99 311.25C282.18 314.43 274.98 369.41 261.66 435.29Z" id="bd0vczBpp"></path><path d="M323.09 195.18L215.66 219.46L215.66 268.03L323.09 292.32L430.51 268.03L430.51 219.46L323.09 195.18Z" id="b3poVFd8MU"></path><path d="M334.26 15.04L334.32 15.04L334.37 15.05L334.43 15.06L334.48 15.07L334.53 15.09L334.59 15.1L334.64 15.12L334.69 15.14L334.74 15.16L334.79 15.19L334.83 15.21L334.88 15.24L334.92 15.27L334.97 15.3L335.01 15.33L335.05 15.36L335.09 15.4L335.13 15.44L335.16 15.48L335.2 15.51L335.23 15.56L335.27 15.6L335.3 15.64L335.33 15.69L335.35 15.73L335.38 15.78L335.4 15.83L335.42 15.88L335.44 15.93L335.46 15.98L335.48 16.03L335.49 16.08L335.5 16.14L335.51 16.19L335.52 16.25L335.53 16.3L335.53 16.36L335.53 16.41L335.53 44.07L363.19 44.07L363.24 44.07L363.3 44.07L363.36 44.08L363.41 44.09L363.46 44.1L363.52 44.11L363.57 44.12L363.62 44.14L363.67 44.16L363.72 44.18L363.77 44.2L363.82 44.22L363.87 44.25L363.91 44.28L363.96 44.3L364 44.34L364.04 44.37L364.09 44.4L364.13 44.44L364.16 44.47L364.2 44.51L364.24 44.55L364.27 44.59L364.3 44.63L364.33 44.68L364.36 44.72L364.39 44.77L364.41 44.82L364.44 44.86L364.46 44.91L364.48 44.96L364.5 45.01L364.51 45.07L364.53 45.12L364.54 45.17L364.55 45.23L364.56 45.28L364.56 45.34L364.57 45.39L364.57 45.45L364.57 67.57L364.57 67.63L364.56 67.69L364.56 67.74L364.55 67.8L364.54 67.85L364.53 67.91L364.51 67.96L364.5 68.01L364.48 68.06L364.46 68.11L364.44 68.16L364.41 68.21L364.39 68.26L364.36 68.3L364.33 68.35L364.3 68.39L364.27 68.43L364.24 68.47L364.2 68.51L364.16 68.55L364.13 68.59L364.09 68.62L364.04 68.66L364 68.69L363.96 68.72L363.91 68.75L363.87 68.78L363.82 68.8L363.77 68.83L363.72 68.85L363.67 68.87L363.62 68.89L363.57 68.9L363.52 68.92L363.46 68.93L363.41 68.94L363.36 68.95L363.3 68.95L363.24 68.96L363.19 68.96L335.53 68.96L335.53 96.61L335.53 96.67L335.53 96.72L335.52 96.78L335.51 96.83L335.5 96.89L335.49 96.94L335.48 97L335.46 97.05L335.44 97.1L335.42 97.15L335.4 97.2L335.38 97.25L335.35 97.29L335.33 97.34L335.3 97.38L335.27 97.43L335.23 97.47L335.2 97.51L335.16 97.55L335.13 97.59L335.09 97.62L335.05 97.66L335.01 97.69L334.97 97.73L334.92 97.76L334.88 97.79L334.83 97.81L334.79 97.84L334.74 97.86L334.69 97.88L334.64 97.9L334.59 97.92L334.53 97.94L334.48 97.95L334.43 97.97L334.37 97.98L334.32 97.98L334.26 97.99L334.21 97.99L334.15 97.99L312.03 97.99L311.97 97.99L311.91 97.99L311.86 97.98L311.8 97.98L311.75 97.97L311.69 97.95L311.64 97.94L311.59 97.92L311.54 97.9L311.49 97.88L311.44 97.86L311.39 97.84L311.34 97.81L311.3 97.79L311.25 97.76L311.21 97.73L311.17 97.69L311.13 97.66L311.09 97.62L311.05 97.59L311.01 97.55L310.98 97.51L310.94 97.47L310.91 97.43L310.88 97.38L310.85 97.34L310.82 97.29L310.8 97.25L310.77 97.2L310.75 97.15L310.73 97.1L310.71 97.05L310.7 97L310.68 96.94L310.67 96.89L310.66 96.83L310.65 96.78L310.65 96.72L310.65 96.67L310.64 96.61L310.64 68.96L282.99 68.96L282.93 68.96L282.88 68.95L282.82 68.95L282.77 68.94L282.71 68.93L282.66 68.92L282.61 68.9L282.55 68.89L282.5 68.87L282.45 68.85L282.4 68.83L282.36 68.8L282.31 68.78L282.26 68.75L282.22 68.72L282.17 68.69L282.13 68.66L282.09 68.62L282.05 68.59L282.01 68.55L281.98 68.51L281.94 68.47L281.91 68.43L281.87 68.39L281.84 68.35L281.81 68.3L281.79 68.26L281.76 68.21L281.74 68.16L281.72 68.11L281.7 68.06L281.68 68.01L281.66 67.96L281.65 67.91L281.64 67.85L281.63 67.8L281.62 67.74L281.61 67.69L281.61 67.63L281.61 67.57L281.61 45.45L281.61 45.39L281.61 45.34L281.62 45.28L281.63 45.23L281.64 45.17L281.65 45.12L281.66 45.07L281.68 45.01L281.7 44.96L281.72 44.91L281.74 44.86L281.76 44.82L281.79 44.77L281.81 44.72L281.84 44.68L281.87 44.63L281.91 44.59L281.94 44.55L281.98 44.51L282.01 44.47L282.05 44.44L282.09 44.4L282.13 44.37L282.17 44.34L282.22 44.3L282.26 44.28L282.31 44.25L282.36 44.22L282.4 44.2L282.45 44.18L282.5 44.16L282.55 44.14L282.61 44.12L282.66 44.11L282.71 44.1L282.77 44.09L282.82 44.08L282.88 44.07L282.93 44.07L282.99 44.07L310.64 44.07L310.64 16.41L310.65 16.36L310.65 16.3L310.65 16.25L310.66 16.19L310.67 16.14L310.68 16.08L310.7 16.03L310.71 15.98L310.73 15.93L310.75 15.88L310.77 15.83L310.8 15.78L310.82 15.73L310.85 15.69L310.88 15.64L310.91 15.6L310.94 15.56L310.98 15.51L311.01 15.48L311.05 15.44L311.09 15.4L311.13 15.36L311.17 15.33L311.21 15.3L311.25 15.27L311.3 15.24L311.34 15.21L311.39 15.19L311.44 15.16L311.49 15.14L311.54 15.12L311.59 15.1L311.64 15.09L311.69 15.07L311.75 15.06L311.8 15.05L311.86 15.04L311.91 15.04L311.97 15.03L312.03 15.03L334.15 15.03L334.21 15.03L334.26 15.04Z" id="a3vCtfuCM"></path><path d="M201.69 112.7L444.48 112.7L423.12 165.38L225 165.38L201.69 112.7Z" id="ndfVhxcN2"></path><path d="M332.45 93.79L341.81 112.7L323.09 112.7L304.37 112.7L313.73 93.79L323.09 85.27L332.45 93.79Z" id="adLGyaDi5"></path><path d="M435.12 93.79L444.48 112.7L425.76 112.7L407.04 112.7L416.4 93.79L425.76 85.27L435.12 93.79Z" id="d11NeCDm8"></path><path d="M229.78 93.79L239.14 112.7L220.42 112.7L201.69 112.7L211.05 93.79L220.42 85.27L229.78 93.79Z" id="bbD8nfnUb"></path><path d="M384.17 93.79L393.53 112.7L374.8 112.7L356.08 112.7L365.44 93.79L374.8 85.27L384.17 93.79Z" id="a3SSrJf3z"></path><path d="M280.85 93.79L290.21 112.7L271.49 112.7L252.76 112.7L262.12 93.79L271.49 85.27L280.85 93.79Z" id="a2AeEXbK3"></path><path d="M216.41 101.94C214.65 105.38 213.76 108.26 212.11 107.47C210.46 106.68 211.16 103.46 212.92 100.02C214.68 96.58 216.83 94.22 218.48 95.01C220.13 95.8 218.17 98.5 216.41 101.94Z" id="e2C8LGn6P7"></path><path d="M267.58 101.94C265.82 105.38 264.93 108.26 263.28 107.47C261.63 106.68 262.33 103.46 264.09 100.02C265.85 96.58 268 94.22 269.65 95.01C271.3 95.8 269.34 98.5 267.58 101.94Z" id="c5AGk23otz"></path><path d="M318.33 101.94C316.57 105.38 315.68 108.26 314.03 107.47C312.38 106.68 313.08 103.46 314.84 100.02C316.6 96.58 318.75 94.22 320.4 95.01C322.05 95.8 320.09 98.5 318.33 101.94Z" id="aIYuYnfCu"></path><path d="M371.69 101.94C369.93 105.38 369.04 108.26 367.39 107.47C365.74 106.68 366.44 103.46 368.2 100.02C369.96 96.58 372.12 94.22 373.77 95.01C375.41 95.8 373.45 98.5 371.69 101.94Z" id="bwlgTBWXz"></path><path d="M423.33 101.94C421.57 105.38 420.68 108.26 419.03 107.47C417.38 106.68 418.08 103.46 419.84 100.02C421.6 96.58 423.76 94.22 425.4 95.01C427.05 95.8 425.09 98.5 423.33 101.94Z" id="bjm9DgxDy"></path><path d="M232.1 136.74C235.74 147.61 237.56 156.71 234.21 157.76C230.86 158.81 226.29 150.27 222.65 139.4C219.01 128.53 217.68 119.42 221.03 118.36C224.38 117.31 228.46 125.86 232.1 136.74Z" id="d2UB1SCBWb"></path><path d="M312.62 35.27C311.59 39.9 311.03 43.62 309.08 43.19C307.13 42.76 306.38 38.65 307.41 34.02C308.44 29.39 310.86 25.98 312.8 26.41C314.75 26.85 313.65 30.64 312.62 35.27Z" id="bqCZdWLGA"></path></defs><g><g><use xlink:href="#a1eTctJJij" opacity="1" fill="#ffffff" fill-opacity="1"></use><g><use xlink:href="#a1eTctJJij" opacity="1" fill-opacity="0" stroke="#000000" stroke-width="4" stroke-opacity="1"></use></g></g><g><use xlink:href="#brQ6016Tw" opacity="1" fill="#ffffff" fill-opacity="1"></use><g><use xlink:href="#brQ6016Tw" opacity="1" fill-opacity="0" stroke="#000000" stroke-width="4" stroke-opacity="1"></use></g></g><g><use xlink:href="#e406Y8EiPB" opacity="1" fill="#ffffff" fill-opacity="1"></use><g><use xlink:href="#e406Y8EiPB" opacity="1" fill-opacity="0" stroke="#000000" stroke-width="4" stroke-opacity="1"></use></g></g><g><use xlink:href="#bd0vczBpp" opacity="0.57" fill="#dbdbdb" fill-opacity="1"></use></g><g><use xlink:href="#b3poVFd8MU" opacity="1" fill="#ffffff" fill-opacity="1"></use><g><use xlink:href="#b3poVFd8MU" opacity="1" fill-opacity="0" stroke="#141111" stroke-width="4" stroke-opacity="1"></use></g></g><g><use xlink:href="#a3vCtfuCM" opacity="1" fill="#ffffff" fill-opacity="1"></use><g><use xlink:href="#a3vCtfuCM" opacity="1" fill-opacity="0" stroke="#141111" stroke-width="4" stroke-opacity="1"></use></g></g><g><g><g><use xlink:href="#ndfVhxcN2" opacity="1" fill="#ffffff" fill-opacity="1"></use><g><use xlink:href="#ndfVhxcN2" opacity="1" fill-opacity="0" stroke="#000000" stroke-width="4" stroke-opacity="1"></use></g></g><g><use xlink:href="#adLGyaDi5" opacity="1" fill="#ffffff" fill-opacity="1"></use><g><use xlink:href="#adLGyaDi5" opacity="1" fill-opacity="0" stroke="#000000" stroke-width="4" stroke-opacity="1"></use></g></g><g><use xlink:href="#d11NeCDm8" opacity="1" fill="#ffffff" fill-opacity="1"></use><g><use xlink:href="#d11NeCDm8" opacity="1" fill-opacity="0" stroke="#000000" stroke-width="4" stroke-opacity="1"></use></g></g><g><use xlink:href="#bbD8nfnUb" opacity="1" fill="#ffffff" fill-opacity="1"></use><g><use xlink:href="#bbD8nfnUb" opacity="1" fill-opacity="0" stroke="#000000" stroke-width="4" stroke-opacity="1"></use></g></g><g><use xlink:href="#a3SSrJf3z" opacity="1" fill="#ffffff" fill-opacity="1"></use><g><use xlink:href="#a3SSrJf3z" opacity="1" fill-opacity="0" stroke="#000000" stroke-width="4" stroke-opacity="1"></use></g></g><g><use xlink:href="#a2AeEXbK3" opacity="1" fill="#ffffff" fill-opacity="1"></use><g><use xlink:href="#a2AeEXbK3" opacity="1" fill-opacity="0" stroke="#000000" stroke-width="4" stroke-opacity="1"></use></g></g></g><g><g><g><use xlink:href="#e2C8LGn6P7" opacity="0.7" fill="#dbdbdb" fill-opacity="1"></use></g><g><use xlink:href="#c5AGk23otz" opacity="0.7" fill="#dbdbdb" fill-opacity="1"></use></g><g><use xlink:href="#aIYuYnfCu" opacity="0.7" fill="#dbdbdb" fill-opacity="1"></use></g><g><use xlink:href="#bwlgTBWXz" opacity="0.7" fill="#dbdbdb" fill-opacity="1"></use></g><g><use xlink:href="#bjm9DgxDy" opacity="0.7" fill="#dbdbdb" fill-opacity="1"></use></g></g><g><use xlink:href="#d2UB1SCBWb" opacity="0.7" fill="#dbdbdb" fill-opacity="1"></use></g></g></g><g><use xlink:href="#bqCZdWLGA" opacity="0.45" fill="#e1e1e1" fill-opacity="1"></use></g></g></svg>