<?xml version="1.0" encoding="UTF-8" standalone="no"?>
<!DOCTYPE svg PUBLIC "-//W3C//DTD SVG 1.1//EN" "http://www.w3.org/Graphics/SVG/1.1/DTD/svg11.dtd">
<svg version="1.1" xmlns="http://www.w3.org/2000/svg" xmlns:xlink="http://www.w3.org/1999/xlink" preserveAspectRatio="xMidYMid meet" viewBox="117.08356435059389 12.980793412255395 455.261788501864 612.9940015623908" width="450.26" height="607.99"><defs><path d="M119.08 580.61L569.35 580.61L569.35 622.97L119.08 622.97L119.08 580.61Z" id="aH3WVooEG"></path><path d="M153.79 544.78L534.64 544.78L534.64 580.61L153.79 580.61L153.79 544.78Z" id="c52kcDNuv"></path><path d="M245.65 328.47L346.35 143.45L442.78 328.47L413.89 544.78L278.82 544.78L245.65 328.47Z" id="a1dUYacVH5"></path><path d="M423.63 150.89C423.63 206.85 388.05 252.28 344.21 252.28C300.38 252.28 264.8 206.85 264.8 150.89C264.8 94.92 300.38 49.49 344.21 49.49C388.05 49.49 423.63 94.92 423.63 150.89Z" id="e3ko2HwkyU"></path><path d="M344.21 167.76L406.1 87.31" id="abRVTtvVB"></path><path d="M308.01 350.95C308.01 414.9 322.56 522.91 308.01 522.91C293.47 522.91 274.91 418.28 274.91 354.32C274.91 290.37 298.2 266.15 312.74 266.15C327.29 266.15 308.01 286.99 308.01 350.95Z" id="a7WrJIWMox"></path><path d="M312.57 134.76C307.61 167.95 307.2 201.26 298.35 199.94C289.5 198.62 280.26 166.54 285.22 133.35C290.18 100.15 307.47 78.33 316.32 79.65C325.18 80.98 317.52 101.57 312.57 134.76Z" id="dbzGFsKt"></path><path d="M348.8 49.01L348.82 49.01L348.84 49.01L348.87 49L348.89 49L348.91 48.99L348.93 48.99L348.95 48.98L348.97 48.97L348.99 48.96L349.01 48.95L349.03 48.94L349.05 48.93L349.07 48.92L349.09 48.91L349.1 48.89L349.12 48.88L349.14 48.87L349.15 48.85L349.17 48.83L349.18 48.82L349.2 48.8L349.21 48.78L349.22 48.77L349.23 48.75L349.25 48.73L349.26 48.71L349.27 48.69L349.28 48.67L349.28 48.65L349.29 48.63L349.3 48.61L349.3 48.59L349.31 48.56L349.31 48.54L349.32 48.52L349.32 48.5L349.32 48.47L349.32 48.45L349.32 37.1L360.66 37.1L360.69 37.1L360.71 37.1L360.73 37.1L360.76 37.1L360.78 37.09L360.8 37.09L360.82 37.08L360.84 37.07L360.87 37.07L360.89 37.06L360.91 37.05L360.93 37.04L360.94 37.03L360.96 37.02L360.98 37.01L361 36.99L361.02 36.98L361.03 36.97L361.05 36.95L361.07 36.94L361.08 36.92L361.1 36.91L361.11 36.89L361.12 36.87L361.14 36.85L361.15 36.84L361.16 36.82L361.17 36.8L361.18 36.78L361.19 36.76L361.2 36.74L361.2 36.72L361.21 36.69L361.22 36.67L361.22 36.65L361.22 36.63L361.23 36.61L361.23 36.58L361.23 36.56L361.23 36.54L361.23 27.46L361.23 27.44L361.23 27.41L361.23 27.39L361.22 27.37L361.22 27.35L361.22 27.32L361.21 27.3L361.2 27.28L361.2 27.26L361.19 27.24L361.18 27.22L361.17 27.2L361.16 27.18L361.15 27.16L361.14 27.14L361.12 27.13L361.11 27.11L361.1 27.09L361.08 27.08L361.07 27.06L361.05 27.04L361.03 27.03L361.02 27.02L361 27L360.98 26.99L360.96 26.98L360.94 26.97L360.93 26.96L360.91 26.95L360.89 26.94L360.87 26.93L360.84 26.92L360.82 26.92L360.8 26.91L360.78 26.9L360.76 26.9L360.73 26.9L360.71 26.9L360.69 26.89L360.66 26.89L349.32 26.89L349.32 15.55L349.32 15.52L349.32 15.5L349.32 15.48L349.31 15.46L349.31 15.43L349.3 15.41L349.3 15.39L349.29 15.37L349.28 15.35L349.28 15.33L349.27 15.31L349.26 15.29L349.25 15.27L349.23 15.25L349.22 15.23L349.21 15.21L349.2 15.2L349.18 15.18L349.17 15.16L349.15 15.15L349.14 15.13L349.12 15.12L349.1 15.1L349.09 15.09L349.07 15.08L349.05 15.07L349.03 15.05L349.01 15.04L348.99 15.03L348.97 15.03L348.95 15.02L348.93 15.01L348.91 15L348.89 15L348.87 14.99L348.84 14.99L348.82 14.99L348.8 14.98L348.78 14.98L348.75 14.98L339.68 14.98L339.65 14.98L339.63 14.98L339.61 14.99L339.58 14.99L339.56 14.99L339.54 15L339.52 15L339.5 15.01L339.48 15.02L339.46 15.03L339.44 15.03L339.42 15.04L339.4 15.05L339.38 15.07L339.36 15.08L339.34 15.09L339.32 15.1L339.31 15.12L339.29 15.13L339.28 15.15L339.26 15.16L339.25 15.18L339.23 15.2L339.22 15.21L339.21 15.23L339.19 15.25L339.18 15.27L339.17 15.29L339.16 15.31L339.15 15.33L339.15 15.35L339.14 15.37L339.13 15.39L339.13 15.41L339.12 15.43L339.12 15.46L339.11 15.48L339.11 15.5L339.11 15.52L339.11 15.55L339.11 26.89L327.76 26.89L327.74 26.89L327.72 26.9L327.69 26.9L327.67 26.9L327.65 26.9L327.63 26.91L327.61 26.92L327.58 26.92L327.56 26.93L327.54 26.94L327.52 26.95L327.5 26.96L327.48 26.97L327.47 26.98L327.45 26.99L327.43 27L327.41 27.02L327.39 27.03L327.38 27.04L327.36 27.06L327.35 27.08L327.33 27.09L327.32 27.11L327.31 27.13L327.29 27.14L327.28 27.16L327.27 27.18L327.26 27.2L327.25 27.22L327.24 27.24L327.23 27.26L327.23 27.28L327.22 27.3L327.21 27.32L327.21 27.35L327.2 27.37L327.2 27.39L327.2 27.41L327.2 27.44L327.2 27.46L327.2 36.54L327.2 36.56L327.2 36.58L327.2 36.61L327.2 36.63L327.21 36.65L327.21 36.67L327.22 36.69L327.23 36.72L327.23 36.74L327.24 36.76L327.25 36.78L327.26 36.8L327.27 36.82L327.28 36.84L327.29 36.85L327.31 36.87L327.32 36.89L327.33 36.91L327.35 36.92L327.36 36.94L327.38 36.95L327.39 36.97L327.41 36.98L327.43 36.99L327.45 37.01L327.47 37.02L327.48 37.03L327.5 37.04L327.52 37.05L327.54 37.06L327.56 37.07L327.58 37.07L327.61 37.08L327.63 37.09L327.65 37.09L327.67 37.1L327.69 37.1L327.72 37.1L327.74 37.1L327.76 37.1L339.11 37.1L339.11 48.45L339.11 48.47L339.11 48.5L339.11 48.52L339.12 48.54L339.12 48.56L339.13 48.59L339.13 48.61L339.14 48.63L339.15 48.65L339.15 48.67L339.16 48.69L339.17 48.71L339.18 48.73L339.19 48.75L339.21 48.77L339.22 48.78L339.23 48.8L339.25 48.82L339.26 48.83L339.28 48.85L339.29 48.87L339.31 48.88L339.32 48.89L339.34 48.91L339.36 48.92L339.38 48.93L339.4 48.94L339.42 48.95L339.44 48.96L339.46 48.97L339.48 48.98L339.5 48.99L339.52 48.99L339.54 49L339.56 49L339.58 49.01L339.61 49.01L339.63 49.01L339.65 49.02L339.68 49.02L348.75 49.02L348.78 49.02L348.8 49.01Z" id="b1LASy3hH"></path></defs><g><g><use xlink:href="#aH3WVooEG" opacity="1" fill="#ffffff" fill-opacity="1"></use><g><use xlink:href="#aH3WVooEG" opacity="1" fill-opacity="0" stroke="#000000" stroke-width="4" stroke-opacity="1"></use></g></g><g><use xlink:href="#c52kcDNuv" opacity="1" fill="#ffffff" fill-opacity="1"></use><g><use xlink:href="#c52kcDNuv" opacity="1" fill-opacity="0" stroke="#000000" stroke-width="4" stroke-opacity="1"></use></g></g><g><use xlink:href="#a1dUYacVH5" opacity="1" fill="#ffffff" fill-opacity="1"></use><g><use xlink:href="#a1dUYacVH5" opacity="1" fill-opacity="0" stroke="#000000" stroke-width="4" stroke-opacity="1"></use></g></g><g><use xlink:href="#e3ko2HwkyU" opacity="1" fill="#ffffff" fill-opacity="1"></use><g><use xlink:href="#e3ko2HwkyU" opacity="1" fill-opacity="0" stroke="#000000" stroke-width="4" stroke-opacity="1"></use></g></g><g><g><use xlink:href="#abRVTtvVB" opacity="1" fill-opacity="0" stroke="#141111" stroke-width="4" stroke-opacity="1"></use></g></g><g><use xlink:href="#a7WrJIWMox" opacity="0.55" fill="#c0bebe" fill-opacity="1"></use></g><g><use xlink:href="#dbzGFsKt" opacity="0.58" fill="#bcb9b9" fill-opacity="1"></use></g><g><use xlink:href="#b1LASy3hH" opacity="1" fill="#ffffff" fill-opacity="1"></use><g><use xlink:href="#b1LASy3hH" opacity="1" fill-opacity="0" stroke="#141111" stroke-width="4" stroke-opacity="1"></use></g></g></g></svg>