<?xml version="1.0" encoding="UTF-8" standalone="no"?>
<!DOCTYPE svg PUBLIC "-//W3C//DTD SVG 1.1//EN" "http://www.w3.org/Graphics/SVG/1.1/DTD/svg11.dtd">
<svg version="1.1" xmlns="http://www.w3.org/2000/svg" xmlns:xlink="http://www.w3.org/1999/xlink" preserveAspectRatio="xMidYMid meet" viewBox="87.08356435059389 35.16573048730227 455.261788501864 560.8090644873439" width="450.26" height="555.81"><defs><path d="M89.08 550.61L539.35 550.61L539.35 592.97L89.08 592.97L89.08 550.61Z" id="a4IiFz9dz6"></path><path d="M123.79 514.78L504.64 514.78L504.64 550.61L123.79 550.61L123.79 514.78Z" id="b6qCTpnJME"></path><path d="M378.04 256.3L441.87 514.78L314.21 514.78L186.56 514.78L250.38 256.3L314.21 109.7L378.04 256.3Z" id="eTF38l4jR"></path><path d="M396.75 119.7C396.75 165.25 359.77 202.23 314.21 202.23C268.66 202.23 231.68 165.25 231.68 119.7C231.68 74.15 268.66 37.17 314.21 37.17C359.77 37.17 396.75 74.15 396.75 119.7Z" id="g1FtH0fZ9"></path><path d="M283.96 356.88C266.56 435.19 251.14 500.06 234.7 496.41C218.27 492.76 219.05 426.21 236.45 347.9C253.86 269.59 281.33 208.97 297.76 212.63C314.2 216.28 301.36 278.57 283.96 356.88Z" id="bHWKCEOwX"></path><path d="M296.04 113.48C289.08 144.83 285.68 170.15 269.25 166.49C252.81 162.84 245.12 134.43 252.09 103.08C259.05 71.74 278.05 49.26 294.49 52.91C310.92 56.56 303.01 82.14 296.04 113.48Z" id="bNeGMcbgn"></path></defs><g><g><use xlink:href="#a4IiFz9dz6" opacity="1" fill="#ffffff" fill-opacity="1"></use><g><use xlink:href="#a4IiFz9dz6" opacity="1" fill-opacity="0" stroke="#000000" stroke-width="4" stroke-opacity="1"></use></g></g><g><use xlink:href="#b6qCTpnJME" opacity="1" fill="#ffffff" fill-opacity="1"></use><g><use xlink:href="#b6qCTpnJME" opacity="1" fill-opacity="0" stroke="#000000" stroke-width="4" stroke-opacity="1"></use></g></g><g><use xlink:href="#eTF38l4jR" opacity="1" fill="#ffffff" fill-opacity="1"></use><g><use xlink:href="#eTF38l4jR" opacity="1" fill-opacity="0" stroke="#000000" stroke-width="4" stroke-opacity="1"></use></g></g><g><use xlink:href="#g1FtH0fZ9" opacity="1" fill="#ffffff" fill-opacity="1"></use><g><use xlink:href="#g1FtH0fZ9" opacity="1" fill-opacity="0" stroke="#000000" stroke-width="4" stroke-opacity="1"></use></g></g><g><use xlink:href="#bHWKCEOwX" opacity="1" fill="#e1e1e1" fill-opacity="1"></use></g><g><use xlink:href="#bNeGMcbgn" opacity="0.45" fill="#e1e1e1" fill-opacity="1"></use></g></g></svg>